<?xml version="1.0" encoding="UTF-8" standalone="no"?>
<!-- Created with Inkscape (http://www.inkscape.org/) -->

<svg
   xmlns:dc="http://purl.org/dc/elements/1.1/"
   xmlns:cc="http://creativecommons.org/ns#"
   xmlns:rdf="http://www.w3.org/1999/02/22-rdf-syntax-ns#"
   xmlns:svg="http://www.w3.org/2000/svg"
   xmlns="http://www.w3.org/2000/svg"
   xmlns:sodipodi="http://sodipodi.sourceforge.net/DTD/sodipodi-0.dtd"
   xmlns:inkscape="http://www.inkscape.org/namespaces/inkscape"
   width="92.403915mm"
   height="46.204746mm"
   viewBox="0 0 92.403915 46.204746"
   version="1.1"
   id="svg8"
   inkscape:version="0.92.0 r15299"
   sodipodi:docname="Deckel_export.svg">
  <defs
     id="defs2" />
  <sodipodi:namedview
     id="base"
     pagecolor="#ffffff"
     bordercolor="#666666"
     borderopacity="1.0"
     inkscape:pageopacity="0.0"
     inkscape:pageshadow="2"
     inkscape:zoom="1.979899"
     inkscape:cx="319.10568"
     inkscape:cy="29.118991"
     inkscape:document-units="mm"
     inkscape:current-layer="layer1"
     showgrid="false"
     inkscape:snap-bbox="true"
     inkscape:bbox-nodes="true"
     inkscape:window-width="2560"
     inkscape:window-height="1330"
     inkscape:window-x="-12"
     inkscape:window-y="-12"
     inkscape:window-maximized="1"
     fit-margin-top="0"
     fit-margin-left="0"
     fit-margin-right="0"
     fit-margin-bottom="0" />
  <metadata
     id="metadata5">
    <rdf:RDF>
      <cc:Work
         rdf:about="">
        <dc:format>image/svg+xml</dc:format>
        <dc:type
           rdf:resource="http://purl.org/dc/dcmitype/StillImage" />
        <dc:title></dc:title>
      </cc:Work>
    </rdf:RDF>
  </metadata>
  <g
     inkscape:label="Ebene 1"
     inkscape:groupmode="layer"
     id="layer1"
     transform="translate(-82.175971,-165.17597)">
    <path
       style="opacity:1;fill:none;fill-opacity:1;fill-rule:nonzero;stroke:#ff0000;stroke-width:0.00352778;stroke-linecap:round;stroke-linejoin:round;stroke-miterlimit:4;stroke-dasharray:none;stroke-dashoffset:0;stroke-opacity:1"
       d="m 86.228516,165.17773 a 0.25023253,0.25023253 0 0 0 -0.02539,0.002 h -3.775391 a 0.25023253,0.25023253 0 0 0 -0.25,0.25 v 3.79883 7.62109 a 0.25023253,0.25023253 0 0 0 0.25,0.25 h 3.550782 v 7.11914 h -3.550782 a 0.25023253,0.25023253 0 0 0 -0.25,0.25 v 7.61914 a 0.25023253,0.25023253 0 0 0 0.25,0.25 h 3.550782 v 7.12109 h -3.550782 a 0.25023253,0.25023253 0 0 0 -0.25,0.25 v 7.61914 3.80079 a 0.25023253,0.25023253 0 0 0 0.25,0.25 h 3.800782 9.019531 a 0.25023253,0.25023253 0 0 0 0.25,-0.25 v -3.55079 h 8.519532 v 3.55079 a 0.25023253,0.25023253 0 0 0 0.25,0.25 h 9.01953 a 0.25023253,0.25023253 0 0 0 0.25,-0.25 v -3.55079 h 8.52148 v 3.55079 a 0.25023253,0.25023253 0 0 0 0.25,0.25 h 9.01953 3.79883 a 0.25023253,0.25023253 0 0 0 0.25,-0.25 v -3.80079 -7.61914 a 0.25023253,0.25023253 0 0 0 -0.25,-0.25 h -3.54883 v -7.12109 h 3.54883 a 0.25023253,0.25023253 0 0 0 0.25,-0.25 v -7.61914 a 0.25023253,0.25023253 0 0 0 -0.25,-0.25 h -3.54883 v -7.11914 h 3.54883 a 0.25023253,0.25023253 0 0 0 0.25,-0.25 v -7.62109 -3.80079 a 0.25023253,0.25023253 0 0 0 -0.25,-0.25 h -3.79883 -9.01953 a 0.25023253,0.25023253 0 0 0 -0.25,0.25 v 3.55079 h -8.52148 v -3.55079 a 0.25023253,0.25023253 0 0 0 -0.25,-0.25 h -9.01953 a 0.25023253,0.25023253 0 0 0 -0.25,0.25 v 3.55079 h -8.519532 v -3.55079 a 0.25023253,0.25023253 0 0 0 -0.25,-0.25 z m 55.699214,0 a 0.25023253,0.25023253 0 0 0 -0.25,0.25 v 3.80079 7.37109 h -3.55078 a 0.25023253,0.25023253 0 0 0 -0.25,0.25 v 7.61914 a 0.25023253,0.25023253 0 0 0 0.25,0.25 h 3.55078 v 7.12109 h -3.55078 a 0.25023253,0.25023253 0 0 0 -0.25,0.25 v 7.61914 a 0.25023253,0.25023253 0 0 0 0.25,0.25 h 3.55078 v 7.36914 3.80079 a 0.25023253,0.25023253 0 0 0 0.25,0.25 h 3 a 0.25023253,0.25023253 0 0 0 0.25,-0.25 v -3.80079 -38.0996 -3.80079 a 0.25023253,0.25023253 0 0 0 -0.25,-0.25 z m 9.80079,0 a 0.25023253,0.25023253 0 0 0 -0.25,0.25 v 3.80079 7.37109 h -3.55079 a 0.25023253,0.25023253 0 0 0 -0.25,0.25 v 7.61914 a 0.25023253,0.25023253 0 0 0 0.25,0.25 h 3.55079 v 7.11914 h -3.55079 a 0.25023253,0.25023253 0 0 0 -0.25,0.25 v 7.62109 a 0.25023253,0.25023253 0 0 0 0.25,0.25 h 3.55079 v 7.36914 3.80079 a 0.25023253,0.25023253 0 0 0 0.25,0.25 h 3 a 0.25023253,0.25023253 0 0 0 0.25,-0.25 v -3.80079 -38.0996 -3.80079 a 0.25023253,0.25023253 0 0 0 -0.25,-0.25 z m 9.79882,0.30079 a 0.25023253,0.25023253 0 0 0 -0.25,0.25 v 8.76953 h -3.54882 a 0.25023253,0.25023253 0 0 0 -0.25,0.25 v 9.02148 a 0.25023253,0.25023253 0 0 0 0.25,0.25 h 3.54882 v 8.51953 h -3.54882 a 0.25023253,0.25023253 0 0 0 -0.25,0.25 v 9.01953 a 0.25023253,0.25023253 0 0 0 0.25,0.25 h 3.54882 v 8.76953 a 0.25023253,0.25023253 0 0 0 0.25,0.25 h 3 a 0.25023253,0.25023253 0 0 0 0.25,-0.25 v -45.0996 a 0.25023253,0.25023253 0 0 0 -0.25,-0.25 z m 9.80078,0 a 0.25023253,0.25023253 0 0 0 -0.25,0.25 v 8.76953 h -3.55078 a 0.25023253,0.25023253 0 0 0 -0.25,0.25 v 9.02148 a 0.25023253,0.25023253 0 0 0 0.25,0.25 h 3.55078 v 8.51953 h -3.55078 a 0.25023253,0.25023253 0 0 0 -0.25,0.25 v 9.01953 a 0.25023253,0.25023253 0 0 0 0.25,0.25 h 3.55078 v 8.76953 a 0.25023253,0.25023253 0 0 0 0.25,0.25 h 3 a 0.25023253,0.25023253 0 0 0 0.25,-0.25 v -45.0996 a 0.25023253,0.25023253 0 0 0 -0.25,-0.25 z"
       id="path101"
       inkscape:connector-curvature="0" />
  </g>
</svg>
