<?xml version="1.0" encoding="UTF-8" standalone="no"?>
<!-- Created with Inkscape (http://www.inkscape.org/) -->

<svg
   xmlns:dc="http://purl.org/dc/elements/1.1/"
   xmlns:cc="http://creativecommons.org/ns#"
   xmlns:rdf="http://www.w3.org/1999/02/22-rdf-syntax-ns#"
   xmlns:svg="http://www.w3.org/2000/svg"
   xmlns="http://www.w3.org/2000/svg"
   xmlns:sodipodi="http://sodipodi.sourceforge.net/DTD/sodipodi-0.dtd"
   xmlns:inkscape="http://www.inkscape.org/namespaces/inkscape"
   width="130.19102mm"
   height="81.136345mm"
   viewBox="0 0 130.19102 81.136345"
   version="1.1"
   id="svg8"
   inkscape:version="0.92.0 r15299"
   sodipodi:docname="Box_export.svg">
  <defs
     id="defs2" />
  <sodipodi:namedview
     id="base"
     pagecolor="#ffffff"
     bordercolor="#666666"
     borderopacity="1.0"
     inkscape:pageopacity="0.0"
     inkscape:pageshadow="2"
     inkscape:zoom="1.979899"
     inkscape:cx="401.34389"
     inkscape:cy="151.46954"
     inkscape:document-units="mm"
     inkscape:current-layer="layer1"
     showgrid="false"
     inkscape:snap-bbox="true"
     inkscape:bbox-nodes="true"
     inkscape:window-width="2560"
     inkscape:window-height="1330"
     inkscape:window-x="-12"
     inkscape:window-y="-12"
     inkscape:window-maximized="1"
     fit-margin-top="0"
     fit-margin-left="0"
     fit-margin-right="0"
     fit-margin-bottom="0" />
  <metadata
     id="metadata5">
    <rdf:RDF>
      <cc:Work
         rdf:about="">
        <dc:format>image/svg+xml</dc:format>
        <dc:type
           rdf:resource="http://purl.org/dc/dcmitype/StillImage" />
        <dc:title></dc:title>
      </cc:Work>
    </rdf:RDF>
  </metadata>
  <g
     inkscape:label="Ebene 1"
     inkscape:groupmode="layer"
     id="layer1"
     transform="translate(-82.175964,-131.21502)">
    <path
       inkscape:connector-curvature="0"
       id="path102"
       style="opacity:1;fill:none;fill-opacity:1;fill-rule:nonzero;stroke:#ff0000;stroke-width:0.00352778;stroke-linecap:round;stroke-linejoin:round;stroke-miterlimit:4;stroke-dasharray:none;stroke-dashoffset:0;stroke-opacity:1"
       d="m 208.31444,212.3496 a 0.24910186,0.24910186 0 0 0 0.25,-0.25 v -7.07031 h 3.55079 a 0.24910186,0.24910186 0 0 0 0.25,-0.25 v -7.32031 a 0.24910186,0.24910186 0 0 0 -0.25,-0.25 h -3.55079 v -6.82031 h 3.55079 a 0.24910186,0.24910186 0 0 0 0.25,-0.25 v -7.32032 a 0.24910186,0.24910186 0 0 0 -0.25,-0.25 h -3.55079 v -7.06836 a 0.24910186,0.24910186 0 0 0 -0.25,-0.25 h -7.14843 v -3.55078 a 0.24910186,0.24910186 0 0 0 -0.25,-0.25 h -7.40039 a 0.24910186,0.24910186 0 0 0 -0.25,0.25 v 3.55078 h -6.90039 v -3.55078 a 0.24910186,0.24910186 0 0 0 -0.25,-0.25 h -7.40039 a 0.24910186,0.24910186 0 0 0 -0.25,0.25 v 3.55078 h -7.1504 a 0.24910186,0.24910186 0 0 0 -0.25,0.25 v 7.06836 h -3.54882 a 0.24910186,0.24910186 0 0 0 -0.25,0.25 v 7.32032 a 0.24910186,0.24910186 0 0 0 0.25,0.25 h 3.54882 v 6.82031 h -3.54882 a 0.24910186,0.24910186 0 0 0 -0.25,0.25 v 7.32031 a 0.24910186,0.24910186 0 0 0 0.25,0.25 h 3.54882 v 7.07031 a 0.24910186,0.24910186 0 0 0 0.25,0.25 z m -21.50836,-12.24987 a 5.7999147,5.7999998 0 0 1 -5.80007,-5.80017 5.7999147,5.7999998 0 0 1 5.80007,-5.80016 5.7999147,5.7999998 0 0 1 5.07818,3.00033 h 0.63044 a 2.7999589,2.8 0 0 1 2.80031,2.79983 2.7999589,2.8 0 0 1 -2.80031,2.79983 h -0.63664 a 5.7999147,5.7999998 0 0 1 -5.07198,3.00034 z" />
    <path
       inkscape:connector-curvature="0"
       style="opacity:1;fill:none;fill-opacity:1;fill-rule:nonzero;stroke:#ff0000;stroke-width:0.00352778;stroke-linecap:round;stroke-linejoin:round;stroke-miterlimit:4;stroke-dasharray:none;stroke-dashoffset:0;stroke-opacity:1"
       d="m 162.12694,212.3496 a 0.24910186,0.24910186 0 0 0 0.25,-0.25 v -7.07031 h 3.55079 a 0.24910186,0.24910186 0 0 0 0.25,-0.25 v -7.32031 a 0.24910186,0.24910186 0 0 0 -0.25,-0.25 h -3.55079 v -6.82031 h 3.55079 a 0.24910186,0.24910186 0 0 0 0.25,-0.25 v -7.32032 a 0.24910186,0.24910186 0 0 0 -0.25,-0.25 h -3.55079 v -7.06836 a 0.24910186,0.24910186 0 0 0 -0.25,-0.25 h -7.14843 v -3.55078 a 0.24910186,0.24910186 0 0 0 -0.25,-0.25 h -7.40039 a 0.24910186,0.24910186 0 0 0 -0.25,0.25 v 3.55078 h -6.90039 v -3.55078 a 0.24910186,0.24910186 0 0 0 -0.25,-0.25 h -7.40039 a 0.24910186,0.24910186 0 0 0 -0.25,0.25 v 3.55078 h -7.14844 a 0.24910186,0.24910186 0 0 0 -0.25,0.25 v 7.06836 h -3.55078 a 0.24910186,0.24910186 0 0 0 -0.25,0.25 v 7.32032 a 0.24910186,0.24910186 0 0 0 0.25,0.25 h 3.55078 v 6.82031 h -3.55078 a 0.24910186,0.24910186 0 0 0 -0.25,0.25 v 7.32031 a 0.24910186,0.24910186 0 0 0 0.25,0.25 h 3.55078 v 7.07031 a 0.24910186,0.24910186 0 0 0 0.25,0.25 z"
       id="path100" />
    <path
       inkscape:connector-curvature="0"
       style="opacity:1;fill:none;fill-opacity:1;fill-rule:nonzero;stroke:#ff0000;stroke-width:0.00352778;stroke-linecap:round;stroke-linejoin:round;stroke-miterlimit:4;stroke-dasharray:none;stroke-dashoffset:0;stroke-opacity:1"
       d="m 212.11523,169.3164 a 0.24910186,0.24910186 0 0 0 0.25,-0.25 v -3.79883 -6.00195 a 0.24910186,0.24910186 0 0 0 -0.25,-0.25 h -3.55079 v -5.5 h 3.55079 a 0.24910186,0.24910186 0 0 0 0.25,-0.25 v -6 a 0.24910186,0.24910186 0 0 0 -0.25,-0.25 h -3.55079 v -5.49805 h 3.55079 a 0.24910186,0.24910186 0 0 0 0.25,-0.25 v -6.00195 -3.79883 a 0.24910186,0.24910186 0 0 0 -0.25,-0.25 h -3.80079 -7.39843 a 0.24910186,0.24910186 0 0 0 -0.25,0.25 v 3.54883 h -6.90039 v -3.54883 a 0.24910186,0.24910186 0 0 0 -0.25,-0.25 h -7.40039 a 0.24910186,0.24910186 0 0 0 -0.25,0.25 v 3.54883 h -6.90039 v -3.54883 a 0.24910186,0.24910186 0 0 0 -0.25,-0.25 h -7.4004 -3.79882 a 0.24910186,0.24910186 0 0 0 -0.25,0.25 v 3.79883 6.00195 a 0.24910186,0.24910186 0 0 0 0.25,0.25 h 3.54882 v 5.49805 h -3.54882 a 0.24910186,0.24910186 0 0 0 -0.25,0.25 v 6 a 0.24910186,0.24910186 0 0 0 0.25,0.25 h 3.54882 v 5.5 h -3.54882 a 0.24910186,0.24910186 0 0 0 -0.25,0.25 v 6.00195 3.79883 a 0.24910186,0.24910186 0 0 0 0.25,0.25 h 3.79882 7.4004 a 0.24910186,0.24910186 0 0 0 0.25,-0.25 v -3.54883 h 6.90039 v 3.54883 a 0.24910186,0.24910186 0 0 0 0.25,0.25 h 7.40039 a 0.24910186,0.24910186 0 0 0 0.25,-0.25 v -3.54883 h 6.90039 v 3.54883 a 0.24910186,0.24910186 0 0 0 0.25,0.25 h 7.39843 z"
       id="path98" />
    <path
       inkscape:connector-curvature="0"
       id="path96"
       style="opacity:1;fill:none;fill-opacity:1;fill-rule:nonzero;stroke:#ff0000;stroke-width:0.00352778;stroke-linecap:round;stroke-linejoin:round;stroke-miterlimit:4;stroke-dasharray:none;stroke-dashoffset:0;stroke-opacity:1"
       d="m 162.07421,169.3164 a 0.24910186,0.24910186 0 0 0 0.25,-0.25 v -3.79883 -5.75195 h 3.55078 a 0.24910186,0.24910186 0 0 0 0.25,-0.25 v -6 a 0.24910186,0.24910186 0 0 0 -0.25,-0.25 h -3.55078 v -5.5 h 3.55078 a 0.24910186,0.24910186 0 0 0 0.25,-0.25 v -5.99805 a 0.24910186,0.24910186 0 0 0 -0.25,-0.25 h -3.55078 v -5.75195 -3.79883 a 0.24910186,0.24910186 0 0 0 -0.25,-0.25 h -7.32031 a 0.24910186,0.24910186 0 0 0 -0.25,0.25 v 3.54883 h -6.81836 v -3.54883 a 0.24910186,0.24910186 0 0 0 -0.25,-0.25 h -7.32031 a 0.24910186,0.24910186 0 0 0 -0.25,0.25 v 3.54883 h -6.82032 v -3.54883 a 0.24910186,0.24910186 0 0 0 -0.25,-0.25 h -7.32031 a 0.24910186,0.24910186 0 0 0 -0.25,0.25 v 3.79883 30.00195 3.79883 a 0.24910186,0.24910186 0 0 0 0.25,0.25 h 7.32031 a 0.24910186,0.24910186 0 0 0 0.25,-0.25 v -3.54883 h 6.81836 v 3.54883 a 0.24910186,0.24910186 0 0 0 0.25,0.25 h 7.32227 a 0.24910186,0.24910186 0 0 0 0.25,-0.25 v -3.54883 h 6.81836 v 3.54883 a 0.24910186,0.24910186 0 0 0 0.25,0.25 z m -2.50024,-24.29993 v 10.5 h -6.5 v -10.5 z" />
    <path
       inkscape:connector-curvature="0"
       style="opacity:1;fill:none;fill-opacity:1;fill-rule:nonzero;stroke:#ff0000;stroke-width:0.00352778;stroke-linecap:round;stroke-linejoin:round;stroke-miterlimit:4;stroke-dasharray:none;stroke-dashoffset:0;stroke-opacity:1"
       d="m 119.02929,169.3164 a 0.24910186,0.24910186 0 0 0 0.25,-0.25 v -3.79883 -5.75195 h 3.54883 a 0.24910186,0.24910186 0 0 0 0.25,-0.25 v -6 a 0.24910186,0.24910186 0 0 0 -0.25,-0.25 h -3.54883 v -5.5 h 3.54883 a 0.24910186,0.24910186 0 0 0 0.25,-0.25 v -5.99805 a 0.24910186,0.24910186 0 0 0 -0.25,-0.25 h -3.54883 v -5.75195 -3.79883 a 0.24910186,0.24910186 0 0 0 -0.25,-0.25 h -7.32031 a 0.24910186,0.24910186 0 0 0 -0.25,0.25 v 3.54883 h -6.82032 v -3.54883 a 0.24910186,0.24910186 0 0 0 -0.25,-0.25 h -7.32031 a 0.24910186,0.24910186 0 0 0 -0.25,0.25 v 3.54883 h -6.82031 v -3.54883 a 0.24910186,0.24910186 0 0 0 -0.25,-0.25 h -7.32031 a 0.24910186,0.24910186 0 0 0 -0.25,0.25 v 3.79883 30.00195 3.79883 a 0.24910186,0.24910186 0 0 0 0.25,0.25 h 7.32031 a 0.24910186,0.24910186 0 0 0 0.25,-0.25 v -3.54883 h 6.82031 v 3.54883 a 0.24910186,0.24910186 0 0 0 0.25,0.25 h 7.32031 a 0.24910186,0.24910186 0 0 0 0.25,-0.25 v -3.54883 h 6.82032 v 3.54883 a 0.24910186,0.24910186 0 0 0 0.25,0.25 z"
       id="path91" />
  </g>
</svg>
