<?xml version="1.0" encoding="UTF-8" standalone="no"?>
<svg
   xmlns:dc="http://purl.org/dc/elements/1.1/"
   xmlns:cc="http://creativecommons.org/ns#"
   xmlns:rdf="http://www.w3.org/1999/02/22-rdf-syntax-ns#"
   xmlns:svg="http://www.w3.org/2000/svg"
   xmlns="http://www.w3.org/2000/svg"
   xmlns:sodipodi="http://sodipodi.sourceforge.net/DTD/sodipodi-0.dtd"
   xmlns:inkscape="http://www.inkscape.org/namespaces/inkscape"
   data-name="Layer 1"
   viewBox="0 0 232.92543 105.98905"
   x="0px"
   y="0px"
   version="1.1"
   id="svg10"
   sodipodi:docname="herzaufsatz.svg"
   inkscape:version="0.92.0 r15299"
   width="232.92543"
   height="105.98905">
  <metadata
     id="metadata16">
    <rdf:RDF>
      <cc:Work
         rdf:about="">
        <dc:format>image/svg+xml</dc:format>
        <dc:type
           rdf:resource="http://purl.org/dc/dcmitype/StillImage" />
        <dc:title>heart2</dc:title>
      </cc:Work>
    </rdf:RDF>
  </metadata>
  <defs
     id="defs14" />
  <sodipodi:namedview
     pagecolor="#ffffff"
     bordercolor="#666666"
     borderopacity="1"
     objecttolerance="10"
     gridtolerance="10"
     guidetolerance="10"
     inkscape:pageopacity="0"
     inkscape:pageshadow="2"
     inkscape:window-width="1920"
     inkscape:window-height="986"
     id="namedview12"
     showgrid="false"
     inkscape:zoom="2.6700352"
     inkscape:cx="93.884845"
     inkscape:cy="-10.158364"
     inkscape:window-x="-11"
     inkscape:window-y="-11"
     inkscape:window-maximized="1"
     inkscape:current-layer="svg10"
     fit-margin-top="0"
     fit-margin-left="0"
     fit-margin-right="0"
     fit-margin-bottom="0" />
  <title
     id="title2">heart2</title>
  <path
     d="m 123.14347,32.075764 v 5.504402 c -0.0862,0.369424 -0.18472,0.75116 -0.2463,1.132897 a 46.030104,46.030104 0 0 1 -5.76299,17.09197 80.041646,80.041646 0 0 1 -8.76764,11.784594 141.61215,141.61215 0 0 1 -13.545517,13.557823 c -4.42076,3.841999 -8.91539,7.610115 -13.5455,11.082685 -6.15705,4.63011 -12.56038,8.976975 -18.84057,13.471635 a 1.1328971,1.1328971 0 0 1 -1.50232,0 c -5.52903,-3.89126 -11.20583,-7.610125 -16.58709,-11.710715 -5.66449,-4.32225 -11.08269,-8.890779 -16.55015,-13.545509 A 120.01321,120.01321 0 0 1 9.3242428,60.742988 46.608866,46.608866 0 0 1 0.99990282,42.271838 c -0.43098,-1.576204 -0.71421,-3.016955 -0.99744,-4.519274 v -5.6768 c 0.0738,-0.320167 0.13546,-0.628019 0.20934,-0.948186 0.54183,-2.46282 0.88662998,-4.925639 1.66240998,-7.388459 A 33.555922,33.555922 0 0 1 17.562373,4.5906937 33.629806,33.629806 0 0 1 40.638993,0.56397965 33.888401,33.888401 0 0 1 60.587843,11.646672 a 6.5634151,6.5634151 0 0 1 0.65265,1.108271 c 1.34224,-1.342239 2.33967,-2.376622 3.38637,-3.3494373 a 34.701133,34.701133 0 0 1 47.212257,-0.160083 34.023857,34.023857 0 0 1 10.15913,17.0427143 c 0.54182,1.884057 0.7881,3.829685 1.14522,5.787627 z"
     id="path4"
     style="fill:none;stroke:#ff0000;stroke-width:0.00492564;stroke-miterlimit:4;stroke-dasharray:none"
     inkscape:connector-curvature="0"
     inkscape:transform-center-x="-12.831526"
     inkscape:transform-center-y="7.0166597" />
  <path
     sodipodi:nodetypes="cccccccscccccc"
     inkscape:connector-curvature="0"
     id="path4503-3-8"
     d="m 34.739083,48.433064 c 1.42997,5.4229 6.83348,9.49388 13.23945,9.97482 2.7138,0.20428 3.98116,-0.0885 6.20801,-1.42892 2.59823,-1.56496 3.88878,-1.73909 17.96135,-2.44001 8.33825,-0.41519 16.33329,-0.75295 17.76705,-0.74935 1.4308,0.003 3.46416,-0.1288 4.51002,-0.29313 1.0458,-0.16401 2.49684,-0.18081 3.22624,-0.0369 2.576137,0.50815 7.079397,-1.07895 8.604017,-3.03153 2.74499,-3.50246 1.3963,-9.46331 -2.51496,-11.13613 -1.71161,-0.73228 -11.260927,-1.54185 -32.312807,-2.73857 -9.84435,-0.56009 -14.52125,-1.30344 -20.49833,-3.25951 -2.47156,-0.8087 -4.02254,-0.96777 -5.88747,-0.60301 -7.095,1.37927 -12.07661,8.99916 -10.29893,15.74416 z"
     style="fill:none;stroke:#ff0000;stroke-width:0.00391444;stroke-miterlimit:4;stroke-dasharray:none" />
  <path
     inkscape:transform-center-y="5.5277748"
     inkscape:transform-center-x="-10.108773"
     inkscape:connector-curvature="0"
     style="fill:none;stroke:#ff0000;stroke-width:0.00388046;stroke-miterlimit:4;stroke-dasharray:none"
     id="path4546"
     d="m 232.92349,39.885313 v 4.33641 c -0.0679,0.291035 -0.14552,0.591769 -0.19403,0.892504 a 36.262862,36.262862 0 0 1 -4.54013,13.465183 63.05741,63.05741 0 0 1 -6.90721,9.283992 111.56311,111.56311 0 0 1 -10.67126,10.680954 c -3.48271,3.026756 -7.02361,5.995306 -10.67125,8.731021 -4.85057,3.64764 -9.89516,7.07214 -14.84274,10.61306 a 0.89250485,0.89250485 0 0 1 -1.18354,0 c -4.35581,-3.06556 -8.82804,-5.99532 -13.06744,-9.225789 -4.46252,-3.405105 -8.73102,-7.004226 -13.03833,-10.671257 A 94.547309,94.547309 0 0 1 143.25585,62.469568 36.718815,36.718815 0 0 1 136.69787,47.917857 c -0.33952,-1.241746 -0.56266,-2.37678 -0.78579,-3.560318 v -4.472226 c 0.0581,-0.25223 0.10672,-0.494758 0.16492,-0.746988 0.42686,-1.940228 0.6985,-3.880455 1.30966,-5.820684 a 26.435608,26.435608 0 0 1 12.35925,-15.085272 26.493814,26.493814 0 0 1 18.17994,-3.172276 26.697537,26.697537 0 0 1 15.71585,8.731028 5.1707077,5.1707077 0 0 1 0.51416,0.873105 c 1.05743,-1.057427 1.84321,-1.872322 2.66781,-2.638713 a 27.337813,27.337813 0 0 1 37.19417,-0.126114 26.80425,26.80425 0 0 1 8.00344,13.426378 c 0.42685,1.484275 0.62087,3.017055 0.90221,4.559536 z" />
</svg>
