<?xml version="1.0" encoding="UTF-8" standalone="no"?>
<!-- Created with Inkscape (http://www.inkscape.org/) -->

<svg
   xmlns:dc="http://purl.org/dc/elements/1.1/"
   xmlns:cc="http://creativecommons.org/ns#"
   xmlns:rdf="http://www.w3.org/1999/02/22-rdf-syntax-ns#"
   xmlns:svg="http://www.w3.org/2000/svg"
   xmlns="http://www.w3.org/2000/svg"
   xmlns:sodipodi="http://sodipodi.sourceforge.net/DTD/sodipodi-0.dtd"
   xmlns:inkscape="http://www.inkscape.org/namespaces/inkscape"
   width="128"
   height="64"
   viewBox="0 0 33.866666 16.933334"
   version="1.1"
   id="svg8"
   inkscape:export-filename="C:\Users\Liza\Desktop\Uebungen\Lasercut\Lovebox\health.png"
   inkscape:export-xdpi="96"
   inkscape:export-ydpi="96"
   inkscape:version="0.92.0 r15299"
   sodipodi:docname="display_anzeige.svg">
  <defs
     id="defs2" />
  <sodipodi:namedview
     id="base"
     pagecolor="#000000"
     bordercolor="#666666"
     borderopacity="1.0"
     inkscape:pageopacity="1"
     inkscape:pageshadow="2"
     inkscape:zoom="3.959798"
     inkscape:cx="54.229857"
     inkscape:cy="39.080848"
     inkscape:document-units="mm"
     inkscape:current-layer="layer1"
     showgrid="false"
     units="px"
     inkscape:window-width="1920"
     inkscape:window-height="986"
     inkscape:window-x="-11"
     inkscape:window-y="-11"
     inkscape:window-maximized="1" />
  <metadata
     id="metadata5">
    <rdf:RDF>
      <cc:Work
         rdf:about="">
        <dc:format>image/svg+xml</dc:format>
        <dc:type
           rdf:resource="http://purl.org/dc/dcmitype/StillImage" />
        <dc:title />
      </cc:Work>
    </rdf:RDF>
  </metadata>
  <g
     inkscape:label="Ebene 1"
     inkscape:groupmode="layer"
     id="layer1"
     transform="translate(0,-280.06665)">
    <flowRoot
       xml:space="preserve"
       id="flowRoot4491"
       style="font-style:normal;font-variant:normal;font-weight:normal;font-stretch:normal;font-size:14px;line-height:17.42362213px;font-family:Arial;-inkscape-font-specification:Arial;text-align:justify;letter-spacing:0px;word-spacing:0px;text-anchor:start;fill:#ffffff;fill-opacity:1;stroke:none;stroke-width:1px;stroke-linecap:butt;stroke-linejoin:miter;stroke-opacity:1"
       transform="matrix(0.26458333,0,0,0.26458333,0.88622938,282.17756)"><flowRegion
         id="flowRegion4493"
         style="text-align:justify;text-anchor:start;fill:#ffffff"><rect
           id="rect4495"
           width="110.59481"
           height="62.03207"
           x="12.857142"
           y="11.142857"
           style="text-align:justify;text-anchor:start;fill:#ffffff" /></flowRegion><flowPara
         style="font-style:normal;font-variant:normal;font-weight:bold;font-stretch:normal;font-size:13.33333397px;font-family:'Kristen ITC';-inkscape-font-specification:'Kristen ITC Bold';text-align:center;text-anchor:middle;fill:#ffffff"
         id="flowPara4507">Gute</flowPara><flowPara
         style="font-style:normal;font-variant:normal;font-weight:bold;font-stretch:normal;font-size:13.33333397px;font-family:'Kristen ITC';-inkscape-font-specification:'Kristen ITC Bold';text-align:center;text-anchor:middle;fill:#ffffff"
         id="flowPara19">Besserung </flowPara></flowRoot>    <g
       transform="matrix(0.08825152,0,0,0.08825152,24.719089,279.92749)"
       id="g8"
       style="fill:#ffffff;stroke:none">
      <path
         inkscape:connector-curvature="0"
         d="m 79.5,49.4 c -0.7,-0.2 -1.4,-0.4 -2,-0.5 -2.9,-0.6 -5.3,-0.4 -7.7,0.6 -1.3,0.6 -2.9,0.2 -3.9,-0.8 C 64.1,46.8 62,45.7 59.1,45.1 58.5,45 57.8,44.9 57,44.8 52.1,44.3 45.7,47.3 43.2,55.2 43.1,55.5 43,55.8 43,56 l -0.4,1.7 c -0.1,0.3 -0.1,0.6 -0.1,0.8 -0.8,7.7 3.2,16.6 12.3,27.1 1.7,1.9 4.1,3 6.5,3 1.3,0 2.5,-0.3 3.7,-0.8 12.6,-6 19.8,-12.6 22.1,-20 0.1,-0.3 0.2,-0.6 0.2,-0.8 l 0.4,-1.7 c 0.1,-0.3 0.1,-0.6 0.1,-0.9 1.1,-8.2 -3.6,-13.5 -8.3,-15 z m 3.7,14.5 c 0,0.1 0,0.3 -0.1,0.4 L 82.8,66 c 0,0.1 -0.1,0.3 -0.1,0.4 -1.9,6 -8.5,11.7 -19.6,17 -1.5,0.7 -3.4,0.4 -4.5,-0.9 C 50.5,73.1 46.7,65.2 47.4,59 c 0,-0.1 0,-0.3 0.1,-0.4 l 0.4,-1.7 c 0,-0.1 0.1,-0.3 0.1,-0.4 1.5,-4.9 5.1,-7 8,-7 0.2,0 0.4,0 0.6,0 0.6,0.1 1.1,0.1 1.6,0.2 1.9,0.4 3.2,1.1 4.3,2.2 2.4,2.5 6.1,3.3 9.3,1.9 1.4,-0.6 2.9,-0.7 4.8,-0.3 0.5,0.1 1,0.2 1.6,0.4 2.8,1 5.6,4.5 5,10 z"
         id="path2"
         style="fill:#ffffff;stroke:none" />
      <path
         inkscape:connector-curvature="0"
         d="m 40.5,39.1 -0.3,-1 c -0.1,-0.2 -0.1,-0.4 -0.2,-0.6 -1.9,-5.1 -6.2,-6.9 -9.5,-6.4 -0.5,0.1 -0.9,0.2 -1.3,0.3 -1.9,0.5 -3.3,1.3 -4.4,2.7 -0.3,0.3 -0.8,0.5 -1.2,0.3 -1.6,-0.6 -3.3,-0.7 -5.2,-0.2 -0.4,0.1 -0.8,0.2 -1.3,0.4 v 0 c -3.1,1.1 -6.1,4.8 -5.2,10.2 0,0.2 0.1,0.4 0.1,0.6 l 0.3,1 c 0.1,0.2 0.1,0.4 0.2,0.6 1.7,4.6 6.3,8.4 14.2,11.7 0.8,0.3 1.6,0.5 2.4,0.5 1.8,0 3.6,-0.8 4.8,-2.3 5.3,-6.7 7.5,-12.3 6.7,-17.2 0,-0.2 0,-0.4 -0.1,-0.6 z M 30.1,53.9 c -0.3,0.4 -1,0.6 -1.5,0.4 -6.5,-2.7 -10.4,-5.7 -11.5,-8.9 0,0 0,-0.1 0,-0.1 l -0.3,-1 c 0,0 0,-0.1 0,-0.1 -0.5,-3.1 1.2,-4.5 2.1,-4.9 0.3,-0.1 0.6,-0.2 0.8,-0.3 1.1,-0.3 1.8,-0.2 2.3,0 2.3,0.9 5,0.2 6.6,-1.7 0.3,-0.4 0.8,-0.8 2,-1.1 0.3,-0.1 0.5,-0.1 0.8,-0.2 1,-0.2 3.1,0.3 4.2,3.3 0,0 0,0.1 0,0.1 l 0.3,1 c 0,0 0,0.1 0,0.1 0.5,3.3 -1.4,7.8 -5.8,13.4 z"
         id="path4"
         style="fill:#ffffff;stroke:none" />
      <path
         inkscape:connector-curvature="0"
         d="m 55.8,33.9 c 0.7,0 1.4,-0.1 2.1,-0.5 6.1,-2.7 9.7,-5.8 10.9,-9.5 0.1,-0.2 0.1,-0.3 0.1,-0.5 l 0.2,-0.8 c 0,-0.2 0.1,-0.3 0.1,-0.5 0.6,-4.4 -1.9,-7.4 -4.5,-8.3 -0.3,-0.1 -0.7,-0.2 -1,-0.3 -1.5,-0.4 -2.9,-0.3 -4.3,0.2 -0.1,0 -0.2,0 -0.3,-0.1 -1,-1.1 -2.2,-1.8 -3.7,-2.1 -0.3,-0.1 -0.7,-0.1 -1.1,-0.2 v 0 c -2.7,-0.4 -6.3,1.2 -7.8,5.4 -0.1,0.2 -0.1,0.3 -0.1,0.5 l -0.2,0.7 c 0,0.2 -0.1,0.3 -0.1,0.5 -0.5,3.8 1.3,8.2 5.5,13.4 1.2,1.4 2.7,2.1 4.2,2.1 z m -4.7,-14.7 0.2,-0.8 c 0.6,-1.6 1.7,-2.2 2.4,-2.2 0.1,0 0.1,0 0.2,0 0.2,0 0.4,0.1 0.6,0.1 0.7,0.2 1,0.4 1.2,0.6 1.4,1.6 3.7,2.1 5.7,1.3 0.3,-0.1 0.7,-0.2 1.4,0 0.2,0 0.4,0.1 0.6,0.2 0.7,0.2 1.5,1.2 1.3,3.1 l -0.2,0.8 c -0.8,2.3 -3.6,4.5 -8.3,6.6 -0.2,0.1 -0.3,0 -0.4,-0.1 -3.5,-3.9 -5,-7.1 -4.7,-9.6 z"
         id="path6-6"
         style="fill:#ffffff;stroke:none" />
    </g>
    <g
       transform="matrix(0.1466279,0,0,0.1466279,-2.3542828,282.45913)"
       id="g29"
       style="fill:#ffffff;stroke:#f9f9f9">
      <path
         inkscape:connector-curvature="0"
         id="path2-7"
         d="m 63.22,22.696 c 0.488,0.196 1.002,0.296 1.524,0.296 0.001,0 0.001,0 0.001,0 1.679,0 3.167,-1.005 3.789,-2.555 0.415,-1.009 0.41,-2.12 -0.015,-3.126 -0.426,-1.009 -1.22,-1.789 -2.234,-2.197 -0.49,-0.198 -1.005,-0.298 -1.531,-0.298 -1.677,0 -3.163,1.002 -3.784,2.548 -0.414,1.014 -0.408,2.127 0.018,3.134 0.425,1.008 1.218,1.789 2.232,2.198 z m -0.86,-4.768 c 0.393,-0.979 1.333,-1.612 2.394,-1.612 0.333,0 0.659,0.063 0.972,0.189 0.642,0.258 1.143,0.751 1.412,1.389 0.268,0.635 0.271,1.336 0.007,1.979 -0.395,0.983 -1.337,1.619 -2.399,1.619 -0.331,0 -0.655,-0.063 -0.965,-0.188 C 63.14,21.045 62.639,20.552 62.37,19.915 62.1,19.278 62.096,18.574 62.36,17.928 Z"
         style="fill:#ffffff;stroke:#f9f9f9" />
      <path
         inkscape:connector-curvature="0"
         id="path4-3"
         d="m 67.723,33.22 c -2.161,0 -4.127,-1.194 -5.145,-3.05 -1.046,0.875 -2.373,1.362 -3.761,1.362 -1.397,0 -2.752,-0.501 -3.814,-1.412 -1.189,-1.018 -1.912,-2.439 -2.033,-4.001 -0.095,-1.228 0.191,-2.426 0.813,-3.461 -2.479,-1.052 -3.989,-3.723 -3.476,-6.476 0.509,-2.727 2.854,-4.719 5.609,-4.789 -0.196,-1.18 -0.028,-2.389 0.497,-3.489 0.676,-1.414 1.861,-2.479 3.339,-2.998 0.632,-0.223 1.29,-0.336 1.955,-0.336 2.16,0 4.125,1.194 5.142,3.051 1.047,-0.876 2.374,-1.364 3.762,-1.364 1.397,0 2.751,0.502 3.812,1.413 1.19,1.017 1.914,2.438 2.034,4.001 0.096,1.226 -0.188,2.423 -0.809,3.458 1.022,0.432 1.902,1.147 2.545,2.084 0.886,1.292 1.215,2.853 0.927,4.393 -0.509,2.725 -2.853,4.717 -5.605,4.789 0.454,2.755 -1.119,5.53 -3.839,6.487 -0.632,0.225 -1.289,0.338 -1.953,0.338 z m -5.017,-4.977 c 0.076,0 0.152,0.011 0.227,0.035 l 0.192,0.061 c 0.225,0.071 0.402,0.243 0.48,0.465 0.616,1.744 2.271,2.916 4.117,2.916 0.493,0 0.982,-0.084 1.453,-0.251 2.196,-0.773 3.388,-3.138 2.739,-5.349 -0.233,-0.208 -0.316,-0.543 -0.196,-0.84 0.133,-0.331 0.479,-0.525 0.833,-0.458 0.267,0.05 0.538,0.075 0.807,0.075 2.098,0 3.9,-1.5 4.286,-3.567 0.215,-1.146 -0.03,-2.307 -0.689,-3.269 -0.659,-0.962 -1.654,-1.61 -2.802,-1.824 -0.349,-0.065 -0.604,-0.365 -0.612,-0.719 -0.008,-0.338 0.211,-0.638 0.53,-0.736 0.659,-0.856 0.974,-1.912 0.89,-2.996 -0.09,-1.163 -0.628,-2.22 -1.515,-2.978 -0.79,-0.679 -1.797,-1.052 -2.836,-1.052 -1.278,0 -2.488,0.557 -3.318,1.528 -0.195,0.229 -0.51,0.322 -0.797,0.228 L 66.301,9.45 C 66.076,9.379 65.899,9.207 65.821,8.985 65.206,7.241 63.552,6.069 61.708,6.069 c -0.495,0 -0.984,0.084 -1.456,0.251 -1.1,0.387 -1.981,1.178 -2.484,2.23 -0.47,0.982 -0.556,2.082 -0.249,3.121 0.23,0.208 0.312,0.542 0.192,0.837 -0.132,0.331 -0.479,0.526 -0.833,0.457 -0.268,-0.05 -0.54,-0.075 -0.809,-0.075 -2.099,0 -3.901,1.5 -4.287,3.566 -0.441,2.366 1.126,4.65 3.493,5.093 0.347,0.065 0.602,0.362 0.612,0.715 0.01,0.338 -0.207,0.639 -0.526,0.738 -0.662,0.857 -0.979,1.914 -0.895,3 0.09,1.162 0.627,2.22 1.513,2.978 0.791,0.678 1.799,1.051 2.839,1.051 1.279,0 2.489,-0.557 3.318,-1.527 0.145,-0.168 0.354,-0.261 0.57,-0.261 z"
         style="fill:#ffffff;stroke:#f9f9f9" />
      <path
         inkscape:connector-curvature="0"
         id="path6"
         d="m 35.052,40.003 c 0.479,0 0.951,-0.084 1.404,-0.25 1.023,-0.376 1.84,-1.129 2.299,-2.12 0.46,-0.992 0.505,-2.102 0.131,-3.12 -0.579,-1.61 -2.119,-2.692 -3.833,-2.692 -0.48,0 -0.953,0.084 -1.406,0.251 -1.024,0.375 -1.841,1.126 -2.301,2.114 -0.461,0.99 -0.508,2.1 -0.134,3.12 0.583,1.613 2.126,2.696 3.84,2.697 z m -2.346,-5.184 c 0.292,-0.626 0.81,-1.102 1.459,-1.339 0.287,-0.106 0.586,-0.159 0.889,-0.159 1.083,0 2.056,0.683 2.423,1.705 0.238,0.647 0.209,1.349 -0.082,1.977 -0.291,0.627 -0.808,1.104 -1.456,1.342 -0.287,0.105 -0.585,0.159 -0.887,0.159 0,0 0,0 0,0 -1.083,0 -2.06,-0.686 -2.43,-1.711 -0.238,-0.647 -0.208,-1.348 0.084,-1.974 z"
         style="fill:#ffffff;stroke:#f9f9f9" />
      <path
         inkscape:connector-curvature="0"
         id="path8"
         d="m 35.18,50.772 c -2.865,0 -5.226,-2.006 -5.751,-4.721 -0.615,0.213 -1.262,0.323 -1.917,0.323 -2.058,0 -3.928,-1.046 -5.003,-2.798 -0.82,-1.335 -1.07,-2.911 -0.705,-4.435 0.268,-1.116 0.842,-2.107 1.656,-2.88 -0.937,-0.743 -1.622,-1.752 -1.969,-2.92 -0.447,-1.501 -0.281,-3.086 0.467,-4.462 1.026,-1.895 3.003,-3.073 5.158,-3.073 0.654,0 1.307,0.112 1.926,0.328 0.167,-1.201 0.701,-2.318 1.551,-3.215 1.078,-1.137 2.535,-1.786 4.103,-1.826 l 0.164,-0.002 c 2.859,0 5.218,2.004 5.748,4.717 0.614,-0.213 1.261,-0.323 1.915,-0.323 2.059,0 3.929,1.047 5.002,2.801 1.47,2.396 1.008,5.443 -0.947,7.31 2.185,1.739 2.877,4.853 1.501,7.387 -1.025,1.894 -3.003,3.071 -5.161,3.071 -0.653,0 -1.305,-0.112 -1.922,-0.327 -0.167,1.201 -0.701,2.317 -1.552,3.214 -1.079,1.138 -2.535,1.788 -4.102,1.829 z m -4.348,-5.523 c 0.172,2.274 2.041,4.024 4.348,4.024 l 0.119,-0.001 c 1.167,-0.031 2.251,-0.515 3.054,-1.361 0.802,-0.847 1.227,-1.955 1.195,-3.12 -0.008,-0.299 0.162,-0.574 0.433,-0.701 l 0.184,-0.085 c 0.216,-0.1 0.465,-0.092 0.674,0.021 0.639,0.346 1.357,0.529 2.078,0.529 1.606,0 3.079,-0.876 3.842,-2.286 1.112,-2.046 0.411,-4.599 -1.552,-5.804 -0.33,-0.012 -0.599,-0.189 -0.71,-0.49 -0.124,-0.336 0.006,-0.712 0.312,-0.899 2.051,-1.259 2.696,-3.953 1.437,-6.005 -0.799,-1.306 -2.191,-2.085 -3.724,-2.085 -0.803,0 -1.591,0.224 -2.28,0.646 -0.301,0.186 -0.69,0.134 -0.935,-0.121 -0.233,-0.245 -0.273,-0.614 -0.102,-0.901 -0.178,-2.271 -2.044,-4.018 -4.345,-4.018 l -0.124,0.001 c -1.167,0.03 -2.252,0.513 -3.054,1.359 -0.802,0.846 -1.226,1.954 -1.194,3.12 0.008,0.3 -0.163,0.576 -0.436,0.702 l -0.186,0.085 c -0.216,0.098 -0.464,0.091 -0.671,-0.022 -0.64,-0.346 -1.358,-0.53 -2.079,-0.53 -1.604,0 -3.075,0.877 -3.839,2.289 -0.557,1.023 -0.68,2.202 -0.348,3.318 0.311,1.044 0.984,1.918 1.909,2.483 0.31,0 0.594,0.193 0.703,0.492 0.123,0.335 -0.008,0.71 -0.313,0.897 -0.995,0.611 -1.693,1.572 -1.965,2.706 -0.271,1.134 -0.085,2.306 0.525,3.3 0.8,1.305 2.192,2.083 3.725,2.083 0.803,0 1.592,-0.223 2.282,-0.646 0.302,-0.185 0.689,-0.134 0.932,0.119 0.233,0.243 0.275,0.612 0.105,0.901 z"
         style="fill:#ffffff;stroke:#f9f9f9" />
      <path
         inkscape:connector-curvature="0"
         id="path10"
         d="m 61.048,47.653 c 10e-4,0 10e-4,0 0,0 1.47,0 3.117,-0.287 4.763,-0.829 4.518,-1.487 7.377,-4.277 6.648,-6.493 -0.44,-1.336 -2.06,-2.102 -4.442,-2.102 -1.47,0 -3.116,0.287 -4.762,0.829 -1.684,0.555 -3.135,1.291 -4.258,2.109 2.233,-7.619 4.31,-11.357 4.349,-11.426 L 62.042,29 c -0.187,0.327 -2.91,5.225 -5.474,15.24 -0.002,0.01 -0.005,0.02 -0.007,0.03 -1.626,6.357 -3.182,14.775 -3.986,25.398 H 48.849 C 48.057,55.207 41.25,44.985 40.954,44.549 l -1.242,0.84 c 0.036,0.053 1.832,2.752 3.682,7.255 -1.006,-0.363 -2.261,-0.527 -3.659,-0.39 -3.213,0.311 -5.5,1.951 -5.32,3.814 0.159,1.631 2.2,2.77 4.964,2.77 0,0 0,0 0,0 0.322,0 0.653,-0.016 0.989,-0.049 1.423,-0.137 2.744,-0.559 3.721,-1.188 0.337,-0.218 0.617,-0.455 0.852,-0.705 1.163,3.644 2.133,7.983 2.405,12.771 H 33.375 c -0.965,0 -1.75,0.785 -1.75,1.75 v 7.333 c 0,0.965 0.785,1.75 1.75,1.75 h 1.347 c 0.665,3.384 3.206,14.837 7.116,14.837 h 16.324 c 3.909,0 6.45,-11.453 7.116,-14.837 h 1.347 c 0.965,0 1.75,-0.785 1.75,-1.75 v -7.333 c 0,-0.965 -0.785,-1.75 -1.75,-1.75 H 54.079 c 0.712,-9.295 2.023,-16.913 3.444,-22.909 0.79,0.577 1.998,0.895 3.525,0.895 z M 43.276,56.34 c -0.768,0.495 -1.88,0.844 -3.052,0.957 -0.288,0.027 -0.569,0.041 -0.844,0.041 0,0 0,0 0,0 -2.059,0 -3.405,-0.734 -3.471,-1.414 -0.072,-0.741 1.405,-1.929 3.972,-2.178 0.286,-0.027 0.567,-0.041 0.841,-0.041 2.062,0 3.409,0.735 3.475,1.416 0.034,0.369 -0.309,0.824 -0.921,1.219 z M 58.162,93.837 H 41.838 c -1.836,0 -4.269,-6.78 -5.583,-13.337 h 27.492 c -1.315,6.557 -3.748,13.337 -5.585,13.337 z m 8.713,-22.42 v 7.333 c 0,0.138 -0.112,0.25 -0.25,0.25 h -33.25 c -0.138,0 -0.25,-0.112 -0.25,-0.25 v -7.333 c 0,-0.138 0.112,-0.25 0.25,-0.25 h 33.25 c 0.138,0 0.25,0.112 0.25,0.25 z M 63.724,40.483 c 1.497,-0.493 2.981,-0.753 4.293,-0.753 1.619,0 2.804,0.421 3.018,1.071 0.338,1.027 -1.665,3.274 -5.692,4.599 -1.497,0.493 -2.981,0.754 -4.293,0.754 0,0 0,0 -10e-4,0 -1.618,0 -2.803,-0.42 -3.017,-1.07 -0.032,-0.097 -0.023,-0.215 -0.014,-0.333 0.031,-0.121 0.063,-0.245 0.094,-0.364 0.425,-1.145 2.334,-2.824 5.612,-3.904 z"
         style="fill:#ffffff;stroke:#f9f9f9" />
    </g>
  </g>
</svg>
